<?xml version="1.0" encoding="UTF-8"?>
<svg id="Capa_1" data-name="Capa 1" xmlns="http://www.w3.org/2000/svg" xmlns:xlink="http://www.w3.org/1999/xlink" viewBox="0 0 453.54 170.08">
  <defs>
    <style>
      .cls-1 {
        clip-path: url(#clippath-4);
      }

      .cls-2 {
        mask: url(#mask-1);
      }

      .cls-3 {
        fill: #cdde00;
      }

      .cls-4 {
        fill: #fff;
      }

      .cls-5 {
        mask: url(#mask);
      }

      .cls-6 {
        fill: none;
      }

      .cls-7 {
        clip-path: url(#clippath-1);
      }

      .cls-8 {
        fill: url(#Degradado_sin_nombre_2);
      }

      .cls-9 {
        clip-path: url(#clippath-5);
      }

      .cls-10 {
        clip-path: url(#clippath-3);
      }

      .cls-11 {
        fill: url(#Degradado_sin_nombre);
      }

      .cls-12 {
        clip-path: url(#clippath-2);
      }

      .cls-13 {
        fill: #4c9c2e;
      }

      .cls-14 {
        clip-path: url(#clippath);
      }
    </style>
    <clipPath id="clippath">
      <polygon class="cls-6" points="35.4 68.03 35.4 107.55 43.69 107.55 43.69 76.16 62.18 76.16 62.18 68.03 35.4 68.03"/>
    </clipPath>
    <clipPath id="clippath-1">
      <rect class="cls-6" x="-4.93" y="60.41" width="92.04" height="92.04"/>
    </clipPath>
    <radialGradient id="Degradado_sin_nombre" data-name="Degradado sin nombre" cx="0" cy="170.08" fx="0" fy="170.08" r="1" gradientTransform="translate(41.09 7763.59) scale(45.02 -45.02)" gradientUnits="userSpaceOnUse">
      <stop offset="0" stop-color="#e3e3e3"/>
      <stop offset=".12" stop-color="#e3e3e3"/>
      <stop offset=".13" stop-color="#e3e3e3"/>
      <stop offset=".27" stop-color="#dfdfdf"/>
      <stop offset=".37" stop-color="#d6d6d6"/>
      <stop offset=".47" stop-color="#c5c5c5"/>
      <stop offset=".56" stop-color="#aeaeae"/>
      <stop offset=".64" stop-color="#909090"/>
      <stop offset=".72" stop-color="#6b6b6b"/>
      <stop offset=".8" stop-color="#3f3f3f"/>
      <stop offset=".88" stop-color="#0d0d0d"/>
      <stop offset=".9" stop-color="#000"/>
      <stop offset=".99" stop-color="#000"/>
      <stop offset="1" stop-color="#000"/>
    </radialGradient>
    <mask id="mask" x="-4.93" y="60.41" width="92.04" height="92.04" maskUnits="userSpaceOnUse">
      <rect class="cls-11" x="-4.93" y="60.41" width="92.04" height="92.04"/>
    </mask>
    <clipPath id="clippath-2">
      <rect class="cls-6" x="-4.93" y="60.41" width="92.04" height="92.04"/>
    </clipPath>
    <clipPath id="clippath-3">
      <path class="cls-6" d="M89.81,75.1c5.55,0,10.26,3.65,11.99,8.54.08.23.13.46.19.7h-24.39c1.51-5.32,6.4-9.24,12.2-9.24M68.83,87.79c0,11.57,9.41,20.98,20.98,20.98,6.2,0,12.05-2.72,16.05-7.47l-6.34-5.34c-2.42,2.87-5.96,4.52-9.71,4.52-5.71,0-10.55-3.8-12.14-8.99h32.76c.22-1.2.35-2.43.35-3.69h0c0-11.57-9.41-20.98-20.98-20.98s-20.98,9.41-20.98,20.97"/>
    </clipPath>
    <clipPath id="clippath-4">
      <rect class="cls-6" x="41.81" y="49.29" width="80.71" height="80.71"/>
    </clipPath>
    <radialGradient id="Degradado_sin_nombre_2" data-name="Degradado sin nombre 2" cx="0" cy="170.08" fx="0" fy="170.08" r="1" gradientTransform="translate(82.16 6783.2) scale(39.36 -39.36)" gradientUnits="userSpaceOnUse">
      <stop offset="0" stop-color="#e3e3e3"/>
      <stop offset=".14" stop-color="#e3e3e3"/>
      <stop offset=".16" stop-color="#e3e3e3"/>
      <stop offset=".31" stop-color="#dfdfdf"/>
      <stop offset=".42" stop-color="#d6d6d6"/>
      <stop offset=".53" stop-color="#c5c5c5"/>
      <stop offset=".63" stop-color="#aeaeae"/>
      <stop offset=".72" stop-color="#909090"/>
      <stop offset=".81" stop-color="#6b6b6b"/>
      <stop offset=".9" stop-color="#3f3f3f"/>
      <stop offset=".98" stop-color="#0d0d0d"/>
      <stop offset="1" stop-color="#000"/>
    </radialGradient>
    <mask id="mask-1" x="41.81" y="49.29" width="80.71" height="80.71" maskUnits="userSpaceOnUse">
      <rect class="cls-8" x="41.81" y="49.29" width="80.71" height="80.71"/>
    </mask>
    <clipPath id="clippath-5">
      <rect class="cls-6" x="41.81" y="49.29" width="80.71" height="80.71"/>
    </clipPath>
  </defs>
  <path class="cls-4" d="M412.1,83.08c2.16,0,3.59,1.39,3.59,3.61s-1.36,3.59-3.59,3.59-3.61-1.36-3.61-3.59,1.39-3.61,3.61-3.61M405.94,76.02v16.52h2.45v-1.25c.98.98,2.34,1.45,3.89,1.45,3.16,0,5.86-1.98,5.86-6.04s-2.7-6.07-5.86-6.07c-1.55,0-2.91.5-3.89,1.48v-6.09h-2.45ZM400.76,80.83v5.72c0,2.16-.84,3.98-2.91,4-1.93.02-2.95-1.36-2.95-3.41v-6.32h-2.45v6.7c0,3.23,2.11,5.25,4.95,5.25,1.09-.02,2.45-.41,3.36-1.57v1.34h2.45v-11.72h-2.45ZM380.22,92.53v-6.25h7.07v6.25h2.45v-15h-2.45v6.32h-7.07v-6.32h-2.45v15h2.45ZM368.61,83.24v-2.41h-7.93v11.7h2.45v-9.29h5.48ZM351.39,83.08c2.25,0,3.61,1.43,3.61,3.61s-1.43,3.59-3.61,3.59-3.59-1.43-3.59-3.59,1.43-3.61,3.59-3.61M357.55,80.83h-2.45v1.27c-.98-.98-2.34-1.48-3.89-1.48-3.16,0-5.86,2.04-5.86,6.07s2.7,6.04,5.86,6.04c1.54,0,2.91-.48,3.89-1.45v1.25h2.45v-11.7ZM342.62,75.95h-2.45v16.59h2.45v-16.59ZM335.01,80.83v5.72c0,2.16-.84,3.98-2.91,4-1.93.02-2.95-1.36-2.95-3.41v-6.32h-2.45v6.7c0,3.23,2.11,5.25,4.95,5.25,1.09-.02,2.45-.41,3.36-1.57v1.34h2.45v-11.72h-2.45ZM324.65,83.2c-1.07-1.77-3.02-2.61-5.23-2.61-3.41,0-6.11,2.04-6.11,6.11s2.7,6.13,6.11,6.13c2.25,0,4.2-.91,5.25-2.68l-2.11-1.34c-.59.95-1.75,1.54-3.11,1.54-2.32,0-3.68-1.43-3.68-3.66s1.45-3.68,3.68-3.68c1.39,0,2.5.59,3.11,1.57l2.09-1.39ZM311.22,83.24v-2.41h-7.93v11.7h2.45v-9.29h5.48ZM294.98,77.38c0,1.07.54,1.59,1.57,1.59s1.61-.52,1.61-1.59-.57-1.54-1.61-1.54-1.57.52-1.57,1.54M297.93,80.83h-5.25v2.41h2.77v6.89h-2.77v2.41h8.02v-2.41h-2.77v-9.29ZM290.61,80.45c-1.39-2.14-3.84-3.11-6.48-3.11-4.66,0-7.68,3.02-7.68,7.75s3.02,7.7,7.68,7.7c2.66,0,4.91-.86,6.36-2.86l-2.11-1.61c-.89,1.32-2.41,1.98-4.2,1.98-3.14,0-5.25-2.02-5.25-5.16,0-3.29,2.05-5.32,5.23-5.32,1.91,0,3.5.8,4.29,2.09l2.16-1.45ZM267.73,83.24v-2.41h-7.93v11.7h2.45v-9.29h5.48ZM250.51,83.08c2.25,0,3.61,1.43,3.61,3.61s-1.43,3.59-3.61,3.59-3.59-1.43-3.59-3.59,1.43-3.61,3.59-3.61M256.67,80.83h-2.45v1.27c-.98-.98-2.34-1.48-3.89-1.48-3.16,0-5.86,2.04-5.86,6.07s2.7,6.04,5.86,6.04c1.54,0,2.91-.48,3.89-1.45v1.25h2.45v-11.7ZM236.22,83.06c1.86,0,3.11.98,3.5,2.55h-6.95c.39-1.59,1.68-2.55,3.45-2.55M239.31,88.81c-.64.91-1.52,1.5-3.09,1.5-1.89,0-3.11-1.02-3.48-2.61h9.54c.02-.29.05-.68.05-1,0-4-2.68-6.09-6.14-6.09s-6.07,2.04-6.07,6.09,2.7,6.07,6.07,6.07c2.23,0,4.16-.84,5.23-2.59l-2.11-1.36ZM227.43,75.95h-2.45v16.59h2.45v-16.59ZM215.32,83.08c2.25,0,3.61,1.43,3.61,3.61s-1.43,3.59-3.61,3.59-3.59-1.43-3.59-3.59,1.43-3.61,3.59-3.61M221.47,80.83h-2.45v1.27c-.98-.98-2.34-1.48-3.89-1.48-3.16,0-5.86,2.04-5.86,6.07s2.7,6.04,5.86,6.04c1.54,0,2.91-.48,3.89-1.45v1.25h2.45v-11.7ZM197.64,79.95h4.27c1.5,0,2.27.75,2.27,1.91s-.73,1.91-2.14,1.91h-4.41v-3.82ZM197.64,85.81h4.95c1.27,0,2.23.75,2.23,2.14s-.84,2.18-2.27,2.18h-4.91v-4.32ZM202.55,92.53c3.09,0,4.77-1.7,4.77-4.41,0-1.57-.64-2.79-1.86-3.54.79-.71,1.2-1.79,1.2-3.18,0-2.34-1.93-3.86-4.45-3.86h-7.02v15h7.36Z"/>
  <polygon class="cls-4" points="134.25 61.23 134.25 76.82 133.56 76.82 128.23 61.23 120.64 61.23 120.64 80.68 124.99 80.68 124.99 65.09 125.62 65.09 130.95 80.68 138.6 80.68 138.6 61.23 134.25 61.23"/>
  <polygon class="cls-13" points="35.4 68.03 35.4 107.55 43.69 107.55 43.69 76.16 62.18 76.16 62.18 68.03 35.4 68.03"/>
  <g class="cls-14">
    <g class="cls-7">
      <g class="cls-5">
        <g class="cls-12">
          <path class="cls-3" d="M41.09,151.45c24.86,0,45.02-20.16,45.02-45.02s-20.16-45.02-45.02-45.02S-3.93,81.57-3.93,106.43s20.16,45.02,45.02,45.02"/>
        </g>
      </g>
    </g>
  </g>
  <path class="cls-13" d="M101.8,83.64c.08.23.13.46.19.7h-24.39c1.51-5.32,6.4-9.24,12.2-9.24s10.26,3.65,11.99,8.54M110.79,87.79h0c0-11.57-9.41-20.98-20.98-20.98s-20.98,9.41-20.98,20.97,9.41,20.98,20.98,20.98c6.2,0,12.05-2.72,16.05-7.47l-6.34-5.34c-2.42,2.87-5.96,4.52-9.71,4.52-5.71,0-10.55-3.8-12.14-8.99h32.76c.22-1.2.35-2.43.35-3.69"/>
  <g class="cls-10">
    <g class="cls-1">
      <g class="cls-2">
        <g class="cls-9">
          <path class="cls-3" d="M82.16,129c21.74,0,39.36-17.62,39.36-39.36s-17.62-39.36-39.36-39.36-39.36,17.62-39.36,39.36,17.62,39.36,39.36,39.36"/>
        </g>
      </g>
    </g>
  </g>
  <rect class="cls-4" x="166.26" y="61.23" width="1.28" height="46.32"/>
</svg>