<svg xmlns="http://www.w3.org/2000/svg" viewBox="0 0 267.23 92.68"><defs><style>.cls-1,.cls-2,.cls-3,.cls-4{fill:#9d9d9c;}.cls-1{opacity:0.6;}.cls-2{opacity:0.4;}.cls-3{opacity:0.8;}.cls-5{fill:#f39200;}</style></defs><g id="Capa_2" data-name="Capa 2"><g id="Capa_1-2" data-name="Capa 1"><path class="cls-1" d="M56.46.12A5.89,5.89,0,1,0,62.34,6,5.89,5.89,0,0,0,56.46.12Z"/><path class="cls-2" d="M31.5.12A5.89,5.89,0,1,0,37.39,6,5.89,5.89,0,0,0,31.5.12Z"/><path class="cls-3" d="M81.42.12A5.89,5.89,0,1,0,87.3,6,5.89,5.89,0,0,0,81.42.12Z"/><path class="cls-4" d="M128.83,83.33a4,4,0,0,1,2.44,4c0,3.2-2.18,5.12-5.86,5.12h-6.22c-.22,0-.34-.12-.34-.36V75.65c0-.24.12-.36.34-.36h6.22c3.23,0,5.12,1.72,5.12,4.69A3.78,3.78,0,0,1,128.83,83.33Zm-3.52-5.46h-3.59v4.34h3.59a2.17,2.17,0,1,0,0-4.34Zm.07,11.94c1.73,0,3-.71,3-2.56,0-1.5-.91-2.53-3-2.53h-3.64v5.09Z"/><path class="cls-4" d="M140.76,92.4c-.26,0-.36-.15-.29-.41l5.75-16.41a.38.38,0,0,1,.38-.29h2.73a.38.38,0,0,1,.38.29L155.45,92c.07.26,0,.41-.29.41h-2.34a.4.4,0,0,1-.41-.29l-1.17-3.61h-6.55l-1.18,3.61a.4.4,0,0,1-.4.29Zm4.74-6.51h4.93L148,78.45h-.09Z"/><path class="cls-4" d="M166,92.4c-.21,0-.33-.12-.33-.36V75.65c0-.24.12-.36.33-.36h2.23q.33,0,.33.36V89.74h7c.24,0,.36.12.36.34v2a.32.32,0,0,1-.36.36Z"/><path class="cls-4" d="M189.27,89.77H197c.24,0,.36.12.36.33V92a.32.32,0,0,1-.36.36H186.71c-.21,0-.33-.12-.33-.36V75.65c0-.24.12-.36.33-.36h9.91a.32.32,0,0,1,.36.36v1.94c0,.21-.12.33-.36.33h-7.35V82.4H196a.32.32,0,0,1,.36.35v1.92A.32.32,0,0,1,196,85h-6.72Z"/><path class="cls-4" d="M207,92.4c-.26,0-.36-.15-.29-.41l5.74-16.41a.4.4,0,0,1,.39-.29h2.72a.39.39,0,0,1,.39.29L221.71,92c.07.26-.05.41-.29.41h-2.34a.4.4,0,0,1-.41-.29L217.5,88.5h-6.56l-1.17,3.61a.41.41,0,0,1-.41.29Zm4.74-6.51h4.93l-2.42-7.44h-.1Z"/><path class="cls-4" d="M241.56,92.4a.42.42,0,0,1-.4-.24l-4.19-6h-2.13V92c0,.24-.12.36-.34.36h-2.2c-.21,0-.33-.12-.33-.36V75.65c0-.24.12-.36.33-.36h5.55c3.93,0,6.22,2,6.22,5.46a5,5,0,0,1-4,5.09L244.48,92c.17.26.05.43-.21.43ZM234.84,78v5.62h3c2.23,0,3.28-.89,3.28-2.8s-1-2.82-3.28-2.82Z"/><path class="cls-4" d="M260.67,92.68a9.19,9.19,0,0,1-6.1-2.29.35.35,0,0,1-.07-.5l1.2-1.68a.31.31,0,0,1,.47-.07A8.25,8.25,0,0,0,260.79,90c1.75,0,3.47-.74,3.47-2.37s-1.79-2.16-3.87-2.59c-2.52-.52-5.82-1.67-5.82-5.24,0-3.32,2.94-4.76,6.39-4.76a9.38,9.38,0,0,1,5.62,1.89.31.31,0,0,1,.1.48L265.53,79c-.12.19-.31.19-.5.07a8.26,8.26,0,0,0-4.29-1.38c-2.05,0-3.25.81-3.25,2.1,0,1.53,1.53,1.94,3.64,2.42,2.8.62,6.1,1.53,6.1,5.31C267.23,91.13,264.17,92.68,260.67,92.68Z"/><path class="cls-4" d="M6,63.1a4.91,4.91,0,0,1-5-5V28a4.94,4.94,0,0,1,5-5,5,5,0,0,1,5,5V58.14A4.93,4.93,0,0,1,6,63.1ZM6,24.27A3.68,3.68,0,0,0,2.28,28V58.14A3.65,3.65,0,0,0,6,61.83a3.68,3.68,0,0,0,3.76-3.69V28A3.72,3.72,0,0,0,6,24.27Z"/><path class="cls-4" d="M6,12a6,6,0,1,1,6-6A6,6,0,0,1,6,12ZM6,1.26A4.75,4.75,0,1,0,10.75,6,4.75,4.75,0,0,0,6,1.26Z"/><path class="cls-5" d="M78.52,36.9c0-9.17-6.45-14.64-17.23-14.64a25.6,25.6,0,0,0-13.07,3.49c-3-2.35-6.78-3.49-11.67-3.49A38,38,0,0,0,22.6,25a1.31,1.31,0,0,0-.94,1.29V59.36a2.74,2.74,0,1,0,5.47,0v-31a28.33,28.33,0,0,1,9.51-1.64c7.35,0,10.92,3.27,10.92,10V59.36a2.74,2.74,0,1,0,5.47,0V36.82a15.45,15.45,0,0,0-1.81-7.51,20.57,20.57,0,0,1,10-2.55c7.64,0,11.85,3.55,11.85,10V59.36a2.74,2.74,0,1,0,5.47,0Z"/><path class="cls-5" d="M105.62,22.26A51,51,0,0,0,89.7,24.89a1.24,1.24,0,0,0-.81,1.2V74.15a2.74,2.74,0,0,0,5.47,0V59.42A26.67,26.67,0,0,0,105.78,62c11.7,0,18.4-5.81,18.4-15.94V38.26C124.18,27.94,117.59,22.26,105.62,22.26Zm13,23.78c0,7.7-4.28,11.44-13.1,11.44a22.54,22.54,0,0,1-11.17-2.95V28.34a39.1,39.1,0,0,1,11.17-1.58c8.94,0,13.1,3.65,13.1,11.5Z"/><path class="cls-5" d="M166.74,24.93a2.74,2.74,0,0,0-5.47,0V55.82a38.15,38.15,0,0,1-10.84,1.66c-8.65,0-12.85-3.62-12.85-11.08V24.93a2.74,2.74,0,0,0-5.47,0V46.48c0,10,6.51,15.5,18.32,15.5a43.93,43.93,0,0,0,15.5-2.85,1.31,1.31,0,0,0,.81-1.2Z"/><path class="cls-5" d="M183.32,10.63a2.74,2.74,0,1,0-5.47,0V59.36a2.74,2.74,0,1,0,5.47,0V10.63Z"/><path class="cls-5" d="M250.7,22.26c-6,0-11.51,1.35-15.55,3.81l-.07.05a2.22,2.22,0,0,0-1,1.91,2.28,2.28,0,0,0,2.28,2.28,3.25,3.25,0,0,0,1.4-.44l.26-.15a27.82,27.82,0,0,1,12.54-2.89c7.63,0,11.18,3.06,11.18,9.63V39a73.05,73.05,0,0,0-11.18-1.06c-11.48,0-18.07,4.34-18.07,11.9,0,7.4,7.09,12.19,18.07,12.19a51.5,51.5,0,0,0,15.71-2.48,1.26,1.26,0,0,0,.93-1.21V36.39C267.17,27.41,261.17,22.26,250.7,22.26Zm11,33.62a41.24,41.24,0,0,1-11.18,1.6c-7.6,0-12.51-3-12.51-7.69,0-6.18,6.8-7.48,12.51-7.48a67,67,0,0,1,11.18,1Z"/><path class="cls-5" d="M210.36,39.63c-6.49-1.2-11.86-2.54-11.86-7,0-3.54,4.1-5.82,10.43-5.82a28.4,28.4,0,0,1,12.46,2.89l.23.11a3,3,0,0,0,1.26.34,2.33,2.33,0,0,0,1.19-4.34.52.52,0,0,0-.13-.06,32.65,32.65,0,0,0-14.84-3.51c-9.56,0-16,4.17-16,10.39,0,7.77,8.67,10.21,16.22,11.46l.15,0c5.47,1,11.12,2,11.12,6.66,0,4.12-4.28,6.68-11.18,6.68a25.19,25.19,0,0,1-13.74-4.09l-.27-.17a2.42,2.42,0,0,0-1.35-.41,2.34,2.34,0,0,0-2.34,2.34,2.4,2.4,0,0,0,1.07,2l.13.09A29.25,29.25,0,0,0,209.35,62c10.37,0,16.81-4.34,16.81-11.33C226.16,42.48,217.4,40.9,210.36,39.63Z"/></g></g></svg>