<?xml version="1.0" encoding="UTF-8"?>
<svg id="Capa_1" data-name="Capa 1" xmlns="http://www.w3.org/2000/svg" xmlns:xlink="http://www.w3.org/1999/xlink" viewBox="0 0 453.54 170.08">
  <defs>
    <style>
      .cls-1 {
        clip-path: url(#clippath-6);
      }

      .cls-2 {
        clip-path: url(#clippath-7);
      }

      .cls-3 {
        clip-path: url(#clippath-4);
      }

      .cls-4 {
        mask: url(#mask-1);
      }

      .cls-5 {
        fill: #cdde00;
      }

      .cls-6 {
        fill: #fff;
      }

      .cls-7 {
        mask: url(#mask);
      }

      .cls-8 {
        fill: #787489;
      }

      .cls-9 {
        fill: none;
      }

      .cls-10 {
        clip-path: url(#clippath-1);
      }

      .cls-11 {
        fill: url(#Degradado_sin_nombre_2);
      }

      .cls-12 {
        clip-path: url(#clippath-5);
      }

      .cls-13 {
        clip-path: url(#clippath-8);
      }

      .cls-14 {
        clip-path: url(#clippath-3);
      }

      .cls-15 {
        fill: url(#Degradado_sin_nombre);
      }

      .cls-16 {
        opacity: .8;
      }

      .cls-17 {
        clip-path: url(#clippath-2);
      }

      .cls-18 {
        fill: #4c9c2e;
      }

      .cls-19 {
        clip-path: url(#clippath);
      }
    </style>
    <clipPath id="clippath">
      <rect class="cls-9" width="453.54" height="170.08"/>
    </clipPath>
    <clipPath id="clippath-1">
      <rect class="cls-9" width="453.54" height="170.08"/>
    </clipPath>
    <clipPath id="clippath-2">
      <polygon class="cls-9" points="36.28 56.22 36.28 125.46 50.8 125.46 50.8 70.47 83.2 70.47 83.2 56.22 36.28 56.22"/>
    </clipPath>
    <clipPath id="clippath-3">
      <rect class="cls-9" x="-33.62" y="43.63" width="159.73" height="159.73"/>
    </clipPath>
    <radialGradient id="Degradado_sin_nombre" data-name="Degradado sin nombre" cx="0" cy="170.08" fx="0" fy="170.08" r="1" gradientTransform="translate(46.24 13536.42) scale(78.86 -78.86)" gradientUnits="userSpaceOnUse">
      <stop offset="0" stop-color="#e3e3e3"/>
      <stop offset=".12" stop-color="#e3e3e3"/>
      <stop offset=".13" stop-color="#e3e3e3"/>
      <stop offset=".27" stop-color="#dfdfdf"/>
      <stop offset=".37" stop-color="#d6d6d6"/>
      <stop offset=".47" stop-color="#c5c5c5"/>
      <stop offset=".56" stop-color="#aeaeae"/>
      <stop offset=".64" stop-color="#909090"/>
      <stop offset=".72" stop-color="#6b6b6b"/>
      <stop offset=".8" stop-color="#3f3f3f"/>
      <stop offset=".88" stop-color="#0d0d0d"/>
      <stop offset=".9" stop-color="#000"/>
      <stop offset=".99" stop-color="#000"/>
      <stop offset="1" stop-color="#000"/>
    </radialGradient>
    <mask id="mask" x="-33.62" y="43.63" width="159.73" height="159.73" maskUnits="userSpaceOnUse">
      <rect class="cls-15" x="-33.62" y="43.63" width="159.73" height="159.73"/>
    </mask>
    <clipPath id="clippath-4">
      <rect class="cls-9" x="-33.62" y="43.63" width="159.73" height="159.73"/>
    </clipPath>
    <clipPath id="clippath-5">
      <rect class="cls-9" width="453.54" height="170.08"/>
    </clipPath>
    <clipPath id="clippath-6">
      <path class="cls-9" d="M131.59,68.62c9.71,0,17.97,6.39,21.01,14.96.14.4.23.82.34,1.22h-42.72c2.64-9.33,11.21-16.19,21.37-16.19M94.85,90.84c0,20.26,16.49,36.74,36.75,36.74,10.86,0,21.11-4.77,28.11-13.08l-11.1-9.35c-4.24,5.03-10.43,7.91-17,7.91-10.01,0-18.48-6.65-21.26-15.75h42.9s14.49,0,14.49,0c.39-2.1.62-4.25.62-6.46h0c0-20.27-16.48-36.75-36.74-36.75s-36.75,16.48-36.75,36.74"/>
    </clipPath>
    <clipPath id="clippath-7">
      <rect class="cls-9" x="48.26" y="24.15" width="139.88" height="139.88"/>
    </clipPath>
    <radialGradient id="Degradado_sin_nombre_2" data-name="Degradado sin nombre 2" cx="0" cy="170.08" fx="0" fy="170.08" r="1" gradientTransform="translate(118.19 11819.1) scale(68.94 -68.94)" gradientUnits="userSpaceOnUse">
      <stop offset="0" stop-color="#e3e3e3"/>
      <stop offset=".14" stop-color="#e3e3e3"/>
      <stop offset=".16" stop-color="#e3e3e3"/>
      <stop offset=".31" stop-color="#dfdfdf"/>
      <stop offset=".42" stop-color="#d6d6d6"/>
      <stop offset=".53" stop-color="#c5c5c5"/>
      <stop offset=".63" stop-color="#aeaeae"/>
      <stop offset=".72" stop-color="#909090"/>
      <stop offset=".81" stop-color="#6b6b6b"/>
      <stop offset=".9" stop-color="#3f3f3f"/>
      <stop offset=".98" stop-color="#0d0d0d"/>
      <stop offset="1" stop-color="#000"/>
    </radialGradient>
    <mask id="mask-1" x="48.26" y="24.15" width="139.88" height="139.88" maskUnits="userSpaceOnUse">
      <rect class="cls-11" x="48.26" y="24.15" width="139.88" height="139.88"/>
    </mask>
    <clipPath id="clippath-8">
      <rect class="cls-9" x="48.26" y="24.15" width="139.88" height="139.88"/>
    </clipPath>
  </defs>
  <g class="cls-19">
    <g class="cls-10">
      <path class="cls-6" d="M350.49,114.36c2.51,0,4.18,1.61,4.18,4.2s-1.59,4.18-4.18,4.18-4.2-1.59-4.2-4.18,1.61-4.2,4.2-4.2M343.33,106.14v19.22h2.86v-1.45c1.14,1.14,2.72,1.69,4.52,1.69,3.67,0,6.82-2.3,6.82-7.03s-3.15-7.06-6.82-7.06c-1.8,0-3.38.58-4.52,1.72v-7.08h-2.86ZM337.3,111.74v6.66c0,2.51-.98,4.63-3.38,4.65-2.25.03-3.44-1.59-3.44-3.97v-7.35h-2.85v7.8c0,3.75,2.46,6.11,5.76,6.11,1.27-.03,2.86-.48,3.91-1.82v1.56h2.85v-13.64h-2.85ZM313.41,125.36v-7.27h8.22v7.27h2.86v-17.45h-2.86v7.35h-8.22v-7.35h-2.86v17.45h2.86Z"/>
      <path class="cls-6" d="M417.27,82.82v-2.8h-9.23v13.61h2.85v-10.81h6.37ZM397.23,82.64c2.62,0,4.2,1.67,4.2,4.2s-1.67,4.18-4.2,4.18-4.18-1.67-4.18-4.18,1.67-4.2,4.18-4.2M404.39,80.02h-2.86v1.48c-1.14-1.14-2.72-1.72-4.52-1.72-3.67,0-6.82,2.38-6.82,7.06s3.15,7.03,6.82,7.03c1.8,0,3.38-.56,4.52-1.69v1.45h2.86v-13.61ZM387.02,74.34h-2.86v19.3h2.86v-19.3ZM378.17,80.02v6.66c0,2.51-.98,4.63-3.38,4.65-2.25.03-3.44-1.59-3.44-3.96v-7.35h-2.86v7.8c0,3.75,2.46,6.11,5.76,6.11,1.27-.03,2.85-.48,3.91-1.82v1.56h2.86v-13.64h-2.86ZM366.12,82.77c-1.24-2.06-3.52-3.04-6.08-3.04-3.96,0-7.11,2.38-7.11,7.11s3.15,7.14,7.11,7.14c2.62,0,4.89-1.06,6.11-3.12l-2.46-1.56c-.69,1.11-2.04,1.8-3.62,1.8-2.7,0-4.28-1.67-4.28-4.26s1.69-4.28,4.28-4.28c1.61,0,2.91.69,3.62,1.82l2.43-1.61ZM350.49,82.82v-2.8h-9.23v13.61h2.85v-10.81h6.37ZM331.59,76c0,1.24.64,1.85,1.82,1.85s1.88-.61,1.88-1.85-.66-1.8-1.88-1.8-1.82.61-1.82,1.8M335.03,80.02h-6.11v2.8h3.22v8.01h-3.22v2.8h9.33v-2.8h-3.23v-10.81ZM326.52,79.57c-1.61-2.48-4.47-3.62-7.53-3.62-5.42,0-8.93,3.51-8.93,9.01s3.52,8.96,8.93,8.96c3.09,0,5.71-1,7.4-3.33l-2.46-1.88c-1.03,1.53-2.8,2.3-4.89,2.3-3.65,0-6.11-2.35-6.11-6,0-3.83,2.38-6.19,6.08-6.19,2.22,0,4.07.93,5,2.43l2.51-1.69Z"/>
      <path class="cls-6" d="M394.98,51.1v-2.8h-9.23v13.61h2.86v-10.81h6.37ZM374.94,50.92c2.62,0,4.2,1.67,4.2,4.2s-1.67,4.18-4.2,4.18-4.18-1.67-4.18-4.18,1.67-4.2,4.18-4.2M382.11,48.3h-2.85v1.48c-1.14-1.14-2.72-1.72-4.52-1.72-3.67,0-6.82,2.38-6.82,7.06s3.15,7.03,6.82,7.03c1.8,0,3.38-.56,4.52-1.69v1.45h2.85v-13.61ZM358.32,50.89c2.17,0,3.62,1.14,4.07,2.96h-8.09c.45-1.85,1.96-2.96,4.02-2.96M361.91,57.58c-.74,1.06-1.77,1.74-3.6,1.74-2.19,0-3.62-1.19-4.05-3.04h11.1c.03-.34.05-.79.05-1.16,0-4.65-3.12-7.08-7.14-7.08s-7.06,2.38-7.06,7.08,3.15,7.06,7.06,7.06c2.59,0,4.84-.98,6.08-3.01l-2.46-1.59ZM348.09,42.62h-2.85v19.3h2.85v-19.3ZM334,50.92c2.62,0,4.2,1.67,4.2,4.2s-1.67,4.18-4.2,4.18-4.18-1.67-4.18-4.18,1.67-4.2,4.18-4.2M341.16,48.3h-2.86v1.48c-1.14-1.14-2.72-1.72-4.52-1.72-3.68,0-6.82,2.38-6.82,7.06s3.15,7.03,6.82,7.03c1.8,0,3.38-.56,4.52-1.69v1.45h2.86v-13.61ZM313.43,47.27h4.97c1.74,0,2.64.87,2.64,2.22s-.85,2.22-2.48,2.22h-5.13v-4.44ZM313.43,54.09h5.76c1.48,0,2.59.87,2.59,2.49s-.98,2.54-2.64,2.54h-5.71v-5.02ZM319.14,61.91c3.59,0,5.55-1.98,5.55-5.13,0-1.82-.74-3.25-2.17-4.12.93-.82,1.4-2.09,1.4-3.7,0-2.72-2.25-4.49-5.18-4.49h-8.17v17.45h8.57Z"/>
    </g>
    <polygon class="cls-6" points="208.49 44.54 208.49 71.69 207.29 71.69 198 44.54 184.78 44.54 184.78 78.42 192.36 78.42 192.36 51.26 193.44 51.26 202.73 78.42 216.06 78.42 216.06 44.54 208.49 44.54"/>
    <rect class="cls-8" x="263.62" y="44.56" width="2.15" height="80.79"/>
    <polygon class="cls-18" points="36.28 56.22 36.28 125.46 50.8 125.46 50.8 70.47 83.2 70.47 83.2 56.22 36.28 56.22"/>
    <g class="cls-17">
      <g class="cls-16">
        <g class="cls-14">
          <g class="cls-7">
            <g class="cls-3">
              <path class="cls-5" d="M46.24,202.36c43.56,0,78.86-35.31,78.86-78.86S89.8,44.63,46.24,44.63-32.62,79.94-32.62,123.49,2.69,202.36,46.24,202.36"/>
            </g>
          </g>
        </g>
      </g>
    </g>
    <g class="cls-12">
      <path class="cls-18" d="M152.6,83.58c.14.4.23.82.34,1.23h-42.72c2.64-9.33,11.21-16.19,21.37-16.19s17.97,6.39,21.01,14.96M168.33,90.84h0c0-20.27-16.48-36.75-36.74-36.75s-36.75,16.48-36.75,36.74,16.48,36.74,36.75,36.74c10.86,0,21.11-4.76,28.11-13.08l-11.1-9.35c-4.24,5.03-10.44,7.91-17,7.91-10.01,0-18.48-6.65-21.26-15.75h57.38c.39-2.1.62-4.25.62-6.46"/>
    </g>
    <g class="cls-1">
      <g class="cls-16">
        <g class="cls-2">
          <g class="cls-4">
            <g class="cls-13">
              <path class="cls-5" d="M118.19,163.02c38.07,0,68.94-30.86,68.94-68.94S156.27,25.15,118.19,25.15,49.26,56.01,49.26,94.09s30.86,68.94,68.94,68.94"/>
            </g>
          </g>
        </g>
      </g>
    </g>
  </g>
</svg>